<?xml version="1.0" standalone="no"?>
<!DOCTYPE svg PUBLIC "-//W3C//DTD SVG 20010904//EN"
 "http://www.w3.org/TR/2001/REC-SVG-20010904/DTD/svg10.dtd">
<svg version="1.0" xmlns="http://www.w3.org/2000/svg"
 width="2360.000000pt" height="1236.000000pt" viewBox="0 0 2360.000000 1236.000000"
 preserveAspectRatio="xMidYMid meet">

<g transform="translate(0.000000,1236.000000) scale(0.100000,-0.100000)"
fill="#000000" stroke="none">
<path d="M0 6180 l0 -4010 11800 0 11800 0 0 4010 0 4010 -11800 0 -11800 0 0
-4010z m23130 0 l0 -3540 -11330 0 -11330 0 0 3540 0 3540 11330 0 11330 0 0
-3540z"/>
<path d="M9509 7245 c-294 -55 -517 -245 -574 -486 -17 -73 -19 -243 -4 -308
22 -98 69 -168 169 -252 97 -81 168 -115 405 -188 153 -48 278 -106 322 -150
84 -84 65 -225 -40 -290 -49 -30 -141 -51 -224 -51 -111 0 -214 27 -332 87
-58 29 -105 52 -107 50 -28 -32 -221 -343 -217 -350 12 -20 157 -107 225 -135
41 -17 121 -40 178 -52 91 -19 127 -21 270 -17 124 4 184 10 241 26 210 58
357 167 442 328 55 106 71 177 71 323 -1 190 -37 275 -164 393 -81 75 -200
131 -408 192 -190 56 -292 104 -336 159 -28 34 -31 45 -31 105 0 59 4 72 29
105 43 57 135 97 239 103 101 7 180 -11 294 -67 44 -22 84 -40 87 -40 13 0
237 353 232 366 -9 22 -206 112 -296 135 -112 27 -360 35 -471 14z"/>
<path d="M15427 7250 c-159 -25 -338 -93 -463 -176 -307 -204 -474 -593 -435
-1014 38 -398 237 -696 575 -856 369 -175 883 -136 1200 90 339 242 492 687
397 1153 -67 324 -279 584 -589 721 -138 61 -255 84 -452 87 -96 2 -201 0
-233 -5z m367 -430 c219 -56 384 -222 442 -445 52 -201 15 -441 -92 -598 -117
-170 -295 -260 -519 -260 -301 0 -516 161 -606 453 -20 63 -24 96 -23 205 0
148 15 216 71 335 46 96 159 213 252 259 140 71 321 91 475 51z"/>
<path d="M4290 6180 l0 -1030 725 0 725 0 0 210 0 210 -500 0 -500 0 2 208 3
207 448 3 447 2 -2 208 -3 207 -447 3 -448 2 0 190 0 190 500 0 500 0 0 210 0
210 -725 0 -725 0 0 -1030z"/>
<path d="M6700 6181 l0 -1031 230 0 230 0 0 400 0 400 208 0 c376 0 533 34
688 151 62 46 133 149 164 239 28 81 39 290 21 396 -17 95 -70 201 -137 274
-72 77 -196 141 -334 172 -88 20 -131 21 -582 25 l-488 5 0 -1031z m921 615
c101 -38 159 -115 159 -216 0 -98 -48 -171 -140 -213 -40 -19 -68 -21 -262
-25 l-218 -4 0 242 0 242 208 -4 c163 -4 217 -8 253 -22z"/>
<path d="M11260 6180 l0 -1030 225 0 225 0 0 1030 0 1030 -225 0 -225 0 0
-1030z"/>
<path d="M12650 6180 l0 -1030 650 0 650 0 -2 208 -3 207 -422 3 -423 2 0 820
0 820 -225 0 -225 0 0 -1030z"/>
<path d="M17440 6180 l0 -1030 215 0 215 0 0 732 c0 619 2 730 14 718 7 -8
118 -193 246 -410 346 -586 592 -1003 604 -1022 10 -17 35 -18 298 -18 l288 0
0 1030 0 1030 -220 0 -220 0 -2 -715 -3 -716 -299 508 c-165 279 -354 601
-420 715 l-121 207 -297 1 -298 0 0 -1030z"/>
</g>
</svg>
